<!-- Generated by IcoMoon.io -->
<svg version="1.1" xmlns="http://www.w3.org/2000/svg" width="38" height="32" viewBox="0 0 38 32">
<title>cart</title>
<path fill="#fff" d="M14.768 29.083c0-0.010 0-0.023 0-0.035 0-1.63-1.322-2.952-2.952-2.952s-2.952 1.322-2.952 2.952c0 1.627 1.317 2.947 2.943 2.952h0c0.011 0 0.025 0 0.038 0 1.612 0 2.919-1.305 2.922-2.917v-0zM35.44 29.083c0-0.010 0-0.023 0-0.035 0-1.63-1.322-2.952-2.952-2.952s-2.952 1.322-2.952 2.952c0 1.63 1.322 2.952 2.952 2.952 0.003 0 0.005 0 0.008 0h-0c0.008 0 0.017 0 0.026 0 1.611 0 2.918-1.306 2.918-2.917v-0zM38.4 4.365c-0.013-0.804-0.666-1.452-1.472-1.454h-27.728c-0.224-1.091-0.24-2.909-1.808-2.909h-5.92c-0.803 0-1.454 0.651-1.454 1.454s0.651 1.454 1.454 1.454h4.72l4.080 18.698c-0.572 0.895-1.051 1.927-1.385 3.023l-0.023 0.089c0.013 0.804 0.666 1.452 1.472 1.454h23.632c0.014 0 0.031 0.001 0.048 0.001 0.803 0 1.454-0.651 1.454-1.454s-0.651-1.454-1.454-1.454c-0.017 0-0.034 0-0.051 0.001l0.002-0h-21.232c0.287-0.41 0.486-0.903 0.558-1.436l0.002-0.017c-0.059-0.593-0.166-1.133-0.32-1.653l0.016 0.063 24.096-2.771c0.735-0.088 1.301-0.703 1.312-1.452v-11.633z"></path>
</svg>
